%
M48
M72
T01C0.03150
T02C0.03200
T03C0.03600
T04C0.04000
T05C0.05906
T06C0.12598
%
T01
X165457Y13921
X185457Y13921
X190457Y203921
X160457Y203921
T02
X29256Y27760
X29256Y37760
X29256Y47760
X29020Y62366
X29020Y92366
X69256Y47760
X69256Y37760
X69256Y27760
X84256Y37602
X84256Y67602
X119610Y171343
X119610Y201343
T03
X21185Y198587
X21185Y188587
X21185Y178587
X21185Y168587
X21185Y144295
X21185Y134295
T04
X47366Y137130
X47366Y147130
X47366Y157130
X47366Y167130
X47366Y177130
X47366Y187130
X47366Y197130
X107366Y197130
X107366Y187130
X107366Y177130
X107366Y167130
X107366Y157130
X107366Y147130
X107366Y137130
X107366Y127130
X107366Y117130
X107366Y107130
X107366Y97130
X107366Y87130
X104492Y47760
X104492Y37760
X104492Y27760
X47366Y87130
X47366Y97130
X47366Y107130
X47366Y117130
X47366Y127130
T05
X237720Y124531
X237720Y149138
X237720Y95004
X237720Y70398
T06
X237720Y21185
X212957Y16421
X137957Y16421
X26106Y109768
X137957Y201421
X212957Y201421
X237720Y198350
M30
