G75*
%MOIN*%
%OFA0B0*%
%FSLAX25Y25*%
%IPPOS*%
%LPD*%
%AMOC8*
5,1,8,0,0,1.08239X$1,22.5*
%
%ADD10OC8,0.05200*%
%ADD11C,0.06000*%
%ADD12C,0.07400*%
%ADD13C,0.15748*%
%ADD14C,0.10000*%
%ADD15C,0.05600*%
%ADD16C,0.01600*%
%ADD17C,0.05000*%
%ADD18C,0.15000*%
%ADD19C,0.10000*%
D10*
X0029256Y0027760D03*
X0029256Y0037760D03*
X0029256Y0047760D03*
X0029020Y0062366D03*
X0029020Y0092366D03*
X0069256Y0047760D03*
X0069256Y0037760D03*
X0069256Y0027760D03*
X0084256Y0037602D03*
X0084256Y0067602D03*
X0119610Y0171343D03*
X0119610Y0201343D03*
D11*
X0107492Y0047760D02*
X0101492Y0047760D01*
X0101492Y0037760D02*
X0107492Y0037760D01*
X0107492Y0027760D02*
X0101492Y0027760D01*
D12*
X0107366Y0087130D03*
X0107366Y0097130D03*
X0107366Y0107130D03*
X0107366Y0117130D03*
X0107366Y0127130D03*
X0107366Y0137130D03*
X0107366Y0147130D03*
X0107366Y0157130D03*
X0107366Y0167130D03*
X0107366Y0177130D03*
X0107366Y0187130D03*
X0107366Y0197130D03*
X0047366Y0197130D03*
X0047366Y0187130D03*
X0047366Y0177130D03*
X0047366Y0167130D03*
X0047366Y0157130D03*
X0047366Y0147130D03*
X0047366Y0137130D03*
X0047366Y0127130D03*
X0047366Y0117130D03*
X0047366Y0107130D03*
X0047366Y0097130D03*
X0047366Y0087130D03*
D13*
X0237720Y0095004D03*
X0237720Y0070398D03*
X0237720Y0124531D03*
X0237720Y0149138D03*
D14*
X0190457Y0203921D03*
X0160457Y0203921D03*
X0165457Y0013921D03*
X0185457Y0013921D03*
D15*
X0023985Y0134295D02*
X0018385Y0134295D01*
X0018385Y0144295D02*
X0023985Y0144295D01*
X0023985Y0168587D02*
X0018385Y0168587D01*
X0018385Y0178587D02*
X0023985Y0178587D01*
X0023985Y0188587D02*
X0018385Y0188587D01*
X0018385Y0198587D02*
X0023985Y0198587D01*
D16*
X0026106Y0178665D02*
X0016343Y0178665D01*
X0021185Y0178587D01*
X0026106Y0178665D02*
X0031028Y0173744D01*
X0031028Y0163902D01*
X0037799Y0157130D01*
X0047366Y0157130D01*
X0047366Y0147130D02*
X0037957Y0147130D01*
X0026106Y0158980D01*
X0026106Y0163902D01*
X0021421Y0168587D01*
X0021185Y0168587D01*
X0021185Y0134295D02*
X0021264Y0134295D01*
X0035949Y0119610D01*
X0035949Y0085161D01*
X0045791Y0075319D01*
X0055634Y0075319D01*
X0107366Y0127051D01*
X0107366Y0127130D01*
X0119610Y0141894D01*
X0119610Y0171343D01*
X0107366Y0087130D02*
X0077287Y0087130D01*
X0037917Y0047760D01*
X0029256Y0047760D01*
X0021185Y0045831D02*
X0029256Y0037760D01*
X0021185Y0045831D02*
X0021185Y0055634D01*
X0027917Y0062366D01*
X0029020Y0062366D01*
D17*
X0011343Y0021185D02*
X0016264Y0016264D01*
X0045791Y0016264D01*
X0050713Y0021185D01*
X0050713Y0050713D01*
X0075319Y0075319D01*
X0114689Y0075319D01*
X0134374Y0095004D01*
X0134374Y0178665D01*
X0129453Y0178665D01*
X0120988Y0187130D01*
X0107366Y0187130D01*
X0119610Y0201343D02*
X0132445Y0188508D01*
X0154059Y0188508D01*
X0160457Y0194906D01*
X0160457Y0203921D01*
X0190457Y0203921D02*
X0190457Y0185535D01*
X0183587Y0178665D01*
X0134374Y0178665D01*
X0119610Y0201343D02*
X0119610Y0208193D01*
X0085161Y0208193D01*
X0085161Y0173744D01*
X0091776Y0167130D01*
X0107366Y0167130D01*
X0085161Y0208193D02*
X0030108Y0208193D01*
X0021185Y0199270D01*
X0021185Y0198587D01*
X0021185Y0188587D02*
X0011343Y0188587D01*
X0011343Y0144295D01*
X0021185Y0144295D01*
X0011343Y0144295D02*
X0011343Y0090083D01*
X0013626Y0092366D01*
X0029020Y0092366D01*
X0011343Y0090083D02*
X0011343Y0021185D01*
X0069256Y0027760D02*
X0104492Y0027760D01*
X0104335Y0037602D02*
X0104492Y0037760D01*
X0163646Y0037760D01*
X0165457Y0035949D01*
X0104335Y0037602D02*
X0084256Y0037602D01*
X0069256Y0047760D02*
X0075319Y0053823D01*
X0075319Y0065476D01*
X0077445Y0067602D01*
X0084256Y0067602D01*
X0104492Y0047760D02*
X0205870Y0149138D01*
X0218035Y0149138D01*
D18*
X0237720Y0149138D01*
X0237720Y0124531D02*
X0218035Y0124531D01*
X0218035Y0095004D02*
X0237720Y0095004D01*
X0237720Y0070398D02*
X0218035Y0070398D01*
D19*
X0218035Y0095004D01*
X0237720Y0071106D02*
X0185457Y0013921D01*
X0165457Y0013921D02*
X0165457Y0035949D01*
X0165457Y0071953D01*
X0218035Y0124531D01*
X0237720Y0071106D02*
X0237720Y0070398D01*
M02*
