G75*
%MOIN*%
%OFA0B0*%
%FSLAX25Y25*%
%IPPOS*%
%LPD*%
%AMOC8*
5,1,8,0,0,1.08239X$1,22.5*
%
%ADD10C,0.13398*%
%ADD11OC8,0.06000*%
%ADD12C,0.06800*%
%ADD13C,0.08200*%
%ADD14C,0.10800*%
%ADD15C,0.06400*%
D10*
X0026106Y0109768D03*
X0137957Y0201421D03*
X0212957Y0201421D03*
X0237720Y0198350D03*
X0237720Y0021185D03*
X0212957Y0016421D03*
X0137957Y0016421D03*
D11*
X0029256Y0027760D03*
X0029256Y0037760D03*
X0029256Y0047760D03*
X0029020Y0062366D03*
X0029020Y0092366D03*
X0069256Y0047760D03*
X0069256Y0037760D03*
X0069256Y0027760D03*
X0084256Y0037602D03*
X0084256Y0067602D03*
X0119610Y0171343D03*
X0119610Y0201343D03*
D12*
X0107492Y0047760D02*
X0101492Y0047760D01*
X0101492Y0037760D02*
X0107492Y0037760D01*
X0107492Y0027760D02*
X0101492Y0027760D01*
D13*
X0107366Y0087130D03*
X0107366Y0097130D03*
X0107366Y0107130D03*
X0107366Y0117130D03*
X0107366Y0127130D03*
X0107366Y0137130D03*
X0107366Y0147130D03*
X0107366Y0157130D03*
X0107366Y0167130D03*
X0107366Y0177130D03*
X0107366Y0187130D03*
X0107366Y0197130D03*
X0047366Y0197130D03*
X0047366Y0187130D03*
X0047366Y0177130D03*
X0047366Y0167130D03*
X0047366Y0157130D03*
X0047366Y0147130D03*
X0047366Y0137130D03*
X0047366Y0127130D03*
X0047366Y0117130D03*
X0047366Y0107130D03*
X0047366Y0097130D03*
X0047366Y0087130D03*
D14*
X0165457Y0013921D03*
X0185457Y0013921D03*
X0190457Y0203921D03*
X0160457Y0203921D03*
D15*
X0023985Y0198587D02*
X0018385Y0198587D01*
X0018385Y0188587D02*
X0023985Y0188587D01*
X0023985Y0178587D02*
X0018385Y0178587D01*
X0018385Y0168587D02*
X0023985Y0168587D01*
X0023985Y0144295D02*
X0018385Y0144295D01*
X0018385Y0134295D02*
X0023985Y0134295D01*
M02*
