G75*
%MOIN*%
%OFA0B0*%
%FSLAX25Y25*%
%IPPOS*%
%LPD*%
%AMOC8*
5,1,8,0,0,1.08239X$1,22.5*
%
%ADD10OC8,0.05200*%
%ADD11C,0.06000*%
%ADD12C,0.07400*%
%ADD13C,0.15748*%
%ADD14C,0.10000*%
%ADD15C,0.05600*%
D10*
X0029256Y0027760D03*
X0029256Y0037760D03*
X0029256Y0047760D03*
X0029020Y0062366D03*
X0029020Y0092366D03*
X0069256Y0047760D03*
X0069256Y0037760D03*
X0069256Y0027760D03*
X0084256Y0037602D03*
X0084256Y0067602D03*
X0119610Y0171343D03*
X0119610Y0201343D03*
D11*
X0107492Y0047760D02*
X0101492Y0047760D01*
X0101492Y0037760D02*
X0107492Y0037760D01*
X0107492Y0027760D02*
X0101492Y0027760D01*
D12*
X0107366Y0087130D03*
X0107366Y0097130D03*
X0107366Y0107130D03*
X0107366Y0117130D03*
X0107366Y0127130D03*
X0107366Y0137130D03*
X0107366Y0147130D03*
X0107366Y0157130D03*
X0107366Y0167130D03*
X0107366Y0177130D03*
X0107366Y0187130D03*
X0107366Y0197130D03*
X0047366Y0197130D03*
X0047366Y0187130D03*
X0047366Y0177130D03*
X0047366Y0167130D03*
X0047366Y0157130D03*
X0047366Y0147130D03*
X0047366Y0137130D03*
X0047366Y0127130D03*
X0047366Y0117130D03*
X0047366Y0107130D03*
X0047366Y0097130D03*
X0047366Y0087130D03*
D13*
X0237720Y0095004D03*
X0237720Y0070398D03*
X0237720Y0124531D03*
X0237720Y0149138D03*
D14*
X0190457Y0203921D03*
X0160457Y0203921D03*
X0165457Y0013921D03*
X0185457Y0013921D03*
D15*
X0023985Y0134295D02*
X0018385Y0134295D01*
X0018385Y0144295D02*
X0023985Y0144295D01*
X0023985Y0168587D02*
X0018385Y0168587D01*
X0018385Y0178587D02*
X0023985Y0178587D01*
X0023985Y0188587D02*
X0018385Y0188587D01*
X0018385Y0198587D02*
X0023985Y0198587D01*
M02*
