G75*
%MOIN*%
%OFA0B0*%
%FSLAX25Y25*%
%IPPOS*%
%LPD*%
%AMOC8*
5,1,8,0,0,1.08239X$1,22.5*
%
%ADD10C,0.01000*%
%ADD11C,0.00600*%
%ADD12C,0.00000*%
%ADD13C,0.00500*%
%ADD14R,0.04000X0.05000*%
%ADD15C,0.00400*%
%ADD16R,0.02000X0.01500*%
%ADD17C,0.02000*%
%ADD18R,0.03000X0.42000*%
%ADD19R,0.02000X0.07500*%
%ADD20R,0.02000X0.03000*%
D10*
X0001500Y0001500D02*
X0001500Y0218035D01*
X0252484Y0218035D01*
X0252484Y0001500D01*
X0001500Y0001500D01*
D11*
X0036756Y0022760D02*
X0036756Y0052760D01*
X0046756Y0052760D01*
X0046758Y0052662D01*
X0046764Y0052564D01*
X0046773Y0052466D01*
X0046787Y0052369D01*
X0046804Y0052272D01*
X0046825Y0052176D01*
X0046850Y0052081D01*
X0046878Y0051987D01*
X0046911Y0051895D01*
X0046946Y0051803D01*
X0046986Y0051713D01*
X0047028Y0051625D01*
X0047075Y0051538D01*
X0047124Y0051454D01*
X0047177Y0051371D01*
X0047233Y0051291D01*
X0047293Y0051212D01*
X0047355Y0051136D01*
X0047420Y0051063D01*
X0047488Y0050992D01*
X0047559Y0050924D01*
X0047632Y0050859D01*
X0047708Y0050797D01*
X0047787Y0050737D01*
X0047867Y0050681D01*
X0047950Y0050628D01*
X0048034Y0050579D01*
X0048121Y0050532D01*
X0048209Y0050490D01*
X0048299Y0050450D01*
X0048391Y0050415D01*
X0048483Y0050382D01*
X0048577Y0050354D01*
X0048672Y0050329D01*
X0048768Y0050308D01*
X0048865Y0050291D01*
X0048962Y0050277D01*
X0049060Y0050268D01*
X0049158Y0050262D01*
X0049256Y0050260D01*
X0049354Y0050262D01*
X0049452Y0050268D01*
X0049550Y0050277D01*
X0049647Y0050291D01*
X0049744Y0050308D01*
X0049840Y0050329D01*
X0049935Y0050354D01*
X0050029Y0050382D01*
X0050121Y0050415D01*
X0050213Y0050450D01*
X0050303Y0050490D01*
X0050391Y0050532D01*
X0050478Y0050579D01*
X0050562Y0050628D01*
X0050645Y0050681D01*
X0050725Y0050737D01*
X0050804Y0050797D01*
X0050880Y0050859D01*
X0050953Y0050924D01*
X0051024Y0050992D01*
X0051092Y0051063D01*
X0051157Y0051136D01*
X0051219Y0051212D01*
X0051279Y0051291D01*
X0051335Y0051371D01*
X0051388Y0051454D01*
X0051437Y0051538D01*
X0051484Y0051625D01*
X0051526Y0051713D01*
X0051566Y0051803D01*
X0051601Y0051895D01*
X0051634Y0051987D01*
X0051662Y0052081D01*
X0051687Y0052176D01*
X0051708Y0052272D01*
X0051725Y0052369D01*
X0051739Y0052466D01*
X0051748Y0052564D01*
X0051754Y0052662D01*
X0051756Y0052760D01*
X0061756Y0052760D01*
X0061756Y0022760D01*
X0036756Y0022760D01*
X0080256Y0043602D02*
X0080256Y0045102D01*
X0080756Y0045602D01*
X0080756Y0059602D01*
X0080256Y0060102D01*
X0080256Y0061602D01*
X0080258Y0061662D01*
X0080263Y0061723D01*
X0080272Y0061782D01*
X0080285Y0061841D01*
X0080301Y0061900D01*
X0080321Y0061957D01*
X0080344Y0062012D01*
X0080371Y0062067D01*
X0080400Y0062119D01*
X0080433Y0062170D01*
X0080469Y0062219D01*
X0080507Y0062265D01*
X0080549Y0062309D01*
X0080593Y0062351D01*
X0080639Y0062389D01*
X0080688Y0062425D01*
X0080739Y0062458D01*
X0080791Y0062487D01*
X0080846Y0062514D01*
X0080901Y0062537D01*
X0080958Y0062557D01*
X0081017Y0062573D01*
X0081076Y0062586D01*
X0081135Y0062595D01*
X0081196Y0062600D01*
X0081256Y0062602D01*
X0087256Y0062602D01*
X0087316Y0062600D01*
X0087377Y0062595D01*
X0087436Y0062586D01*
X0087495Y0062573D01*
X0087554Y0062557D01*
X0087611Y0062537D01*
X0087666Y0062514D01*
X0087721Y0062487D01*
X0087773Y0062458D01*
X0087824Y0062425D01*
X0087873Y0062389D01*
X0087919Y0062351D01*
X0087963Y0062309D01*
X0088005Y0062265D01*
X0088043Y0062219D01*
X0088079Y0062170D01*
X0088112Y0062119D01*
X0088141Y0062067D01*
X0088168Y0062012D01*
X0088191Y0061957D01*
X0088211Y0061900D01*
X0088227Y0061841D01*
X0088240Y0061782D01*
X0088249Y0061723D01*
X0088254Y0061662D01*
X0088256Y0061602D01*
X0088256Y0060102D01*
X0087756Y0059602D01*
X0087756Y0045602D01*
X0088256Y0045102D01*
X0088256Y0043602D01*
X0088254Y0043542D01*
X0088249Y0043481D01*
X0088240Y0043422D01*
X0088227Y0043363D01*
X0088211Y0043304D01*
X0088191Y0043247D01*
X0088168Y0043192D01*
X0088141Y0043137D01*
X0088112Y0043085D01*
X0088079Y0043034D01*
X0088043Y0042985D01*
X0088005Y0042939D01*
X0087963Y0042895D01*
X0087919Y0042853D01*
X0087873Y0042815D01*
X0087824Y0042779D01*
X0087773Y0042746D01*
X0087721Y0042717D01*
X0087666Y0042690D01*
X0087611Y0042667D01*
X0087554Y0042647D01*
X0087495Y0042631D01*
X0087436Y0042618D01*
X0087377Y0042609D01*
X0087316Y0042604D01*
X0087256Y0042602D01*
X0081256Y0042602D01*
X0081196Y0042604D01*
X0081135Y0042609D01*
X0081076Y0042618D01*
X0081017Y0042631D01*
X0080958Y0042647D01*
X0080901Y0042667D01*
X0080846Y0042690D01*
X0080791Y0042717D01*
X0080739Y0042746D01*
X0080688Y0042779D01*
X0080639Y0042815D01*
X0080593Y0042853D01*
X0080549Y0042895D01*
X0080507Y0042939D01*
X0080469Y0042985D01*
X0080433Y0043034D01*
X0080400Y0043085D01*
X0080371Y0043137D01*
X0080344Y0043192D01*
X0080321Y0043247D01*
X0080301Y0043304D01*
X0080285Y0043363D01*
X0080272Y0043422D01*
X0080263Y0043481D01*
X0080258Y0043542D01*
X0080256Y0043602D01*
X0097492Y0056260D02*
X0098492Y0057260D01*
X0109992Y0057760D01*
X0097492Y0056260D02*
X0097492Y0019260D01*
X0098492Y0018260D01*
X0109992Y0017760D01*
X0169820Y0067198D02*
X0174090Y0067198D01*
X0176265Y0068265D02*
X0177333Y0067198D01*
X0179468Y0067198D01*
X0180536Y0068265D01*
X0180536Y0070400D01*
X0179468Y0071468D01*
X0177333Y0071468D01*
X0176265Y0070400D01*
X0176265Y0068265D01*
X0182711Y0068265D02*
X0183778Y0069333D01*
X0186981Y0069333D01*
X0186981Y0070400D02*
X0186981Y0067198D01*
X0183778Y0067198D01*
X0182711Y0068265D01*
X0183778Y0071468D02*
X0185914Y0071468D01*
X0186981Y0070400D01*
X0189156Y0070400D02*
X0189156Y0068265D01*
X0190224Y0067198D01*
X0193427Y0067198D01*
X0193427Y0073603D01*
X0193427Y0071468D02*
X0190224Y0071468D01*
X0189156Y0070400D01*
X0202047Y0067198D02*
X0202047Y0073603D01*
X0206318Y0067198D01*
X0206318Y0073603D01*
X0206318Y0091804D02*
X0206318Y0098209D01*
X0202047Y0098209D02*
X0206318Y0091804D01*
X0202047Y0091804D02*
X0202047Y0098209D01*
X0193427Y0097142D02*
X0193427Y0092872D01*
X0192359Y0091804D01*
X0190224Y0091804D01*
X0189156Y0092872D01*
X0193427Y0097142D01*
X0192359Y0098209D01*
X0190224Y0098209D01*
X0189156Y0097142D01*
X0189156Y0092872D01*
X0186981Y0091804D02*
X0182711Y0091804D01*
X0186981Y0096074D01*
X0186981Y0097142D01*
X0185914Y0098209D01*
X0183778Y0098209D01*
X0182711Y0097142D01*
X0180536Y0097142D02*
X0179468Y0098209D01*
X0177333Y0098209D01*
X0176265Y0097142D01*
X0180536Y0097142D02*
X0180536Y0096074D01*
X0176265Y0091804D01*
X0180536Y0091804D01*
X0167645Y0091804D02*
X0164442Y0091804D01*
X0163374Y0092872D01*
X0163374Y0096074D01*
X0160145Y0098209D02*
X0160145Y0091804D01*
X0161212Y0091804D02*
X0159077Y0091804D01*
X0156902Y0092872D02*
X0155835Y0091804D01*
X0152632Y0091804D01*
X0152632Y0089669D02*
X0152632Y0096074D01*
X0155835Y0096074D01*
X0156902Y0095007D01*
X0156902Y0092872D01*
X0159077Y0098209D02*
X0160145Y0098209D01*
X0167645Y0096074D02*
X0167645Y0090736D01*
X0166577Y0089669D01*
X0165509Y0089669D01*
X0150457Y0092872D02*
X0149389Y0091804D01*
X0146186Y0091804D01*
X0146186Y0089669D02*
X0146186Y0096074D01*
X0149389Y0096074D01*
X0150457Y0095007D01*
X0150457Y0092872D01*
X0144011Y0091804D02*
X0144011Y0096074D01*
X0139741Y0096074D02*
X0139741Y0092872D01*
X0140808Y0091804D01*
X0144011Y0091804D01*
X0137566Y0092872D02*
X0136498Y0091804D01*
X0134363Y0091804D01*
X0133295Y0092872D01*
X0134363Y0095007D02*
X0136498Y0095007D01*
X0137566Y0093939D01*
X0137566Y0092872D01*
X0134363Y0095007D02*
X0133295Y0096074D01*
X0133295Y0097142D01*
X0134363Y0098209D01*
X0136498Y0098209D01*
X0137566Y0097142D01*
X0146186Y0119196D02*
X0146186Y0125602D01*
X0149389Y0125602D01*
X0150457Y0124534D01*
X0150457Y0122399D01*
X0149389Y0121331D01*
X0146186Y0121331D01*
X0144011Y0121331D02*
X0144011Y0125602D01*
X0139741Y0125602D02*
X0139741Y0122399D01*
X0140808Y0121331D01*
X0144011Y0121331D01*
X0137566Y0122399D02*
X0136498Y0121331D01*
X0134363Y0121331D01*
X0133295Y0122399D01*
X0134363Y0124534D02*
X0136498Y0124534D01*
X0137566Y0123467D01*
X0137566Y0122399D01*
X0134363Y0124534D02*
X0133295Y0125602D01*
X0133295Y0126669D01*
X0134363Y0127737D01*
X0136498Y0127737D01*
X0137566Y0126669D01*
X0152632Y0125602D02*
X0152632Y0119196D01*
X0152632Y0121331D02*
X0155835Y0121331D01*
X0156902Y0122399D01*
X0156902Y0124534D01*
X0155835Y0125602D01*
X0152632Y0125602D01*
X0159077Y0127737D02*
X0160145Y0127737D01*
X0160145Y0121331D01*
X0161212Y0121331D02*
X0159077Y0121331D01*
X0163374Y0122399D02*
X0163374Y0125602D01*
X0163374Y0122399D02*
X0164442Y0121331D01*
X0167645Y0121331D01*
X0167645Y0120264D02*
X0166577Y0119196D01*
X0165509Y0119196D01*
X0167645Y0120264D02*
X0167645Y0125602D01*
X0176265Y0126669D02*
X0177333Y0127737D01*
X0179468Y0127737D01*
X0180536Y0126669D01*
X0180536Y0125602D01*
X0176265Y0121331D01*
X0180536Y0121331D01*
X0182711Y0121331D02*
X0186981Y0125602D01*
X0186981Y0126669D01*
X0185914Y0127737D01*
X0183778Y0127737D01*
X0182711Y0126669D01*
X0182711Y0121331D02*
X0186981Y0121331D01*
X0189156Y0122399D02*
X0193427Y0126669D01*
X0193427Y0122399D01*
X0192359Y0121331D01*
X0190224Y0121331D01*
X0189156Y0122399D01*
X0189156Y0126669D01*
X0190224Y0127737D01*
X0192359Y0127737D01*
X0193427Y0126669D01*
X0202047Y0127737D02*
X0202047Y0121331D01*
X0206318Y0121331D01*
X0206318Y0145938D02*
X0202047Y0145938D01*
X0202047Y0152343D01*
X0193427Y0152343D02*
X0193427Y0145938D01*
X0190224Y0145938D01*
X0189156Y0147005D01*
X0189156Y0149141D01*
X0190224Y0150208D01*
X0193427Y0150208D01*
X0186981Y0149141D02*
X0186981Y0145938D01*
X0183778Y0145938D01*
X0182711Y0147005D01*
X0183778Y0148073D01*
X0186981Y0148073D01*
X0186981Y0149141D02*
X0185914Y0150208D01*
X0183778Y0150208D01*
X0180536Y0149141D02*
X0179468Y0150208D01*
X0177333Y0150208D01*
X0176265Y0149141D01*
X0176265Y0147005D01*
X0177333Y0145938D01*
X0179468Y0145938D01*
X0180536Y0147005D01*
X0180536Y0149141D01*
X0174090Y0145938D02*
X0169820Y0145938D01*
X0169820Y0152343D01*
X0123610Y0177343D02*
X0123610Y0178843D01*
X0123110Y0179343D01*
X0123110Y0193343D01*
X0123610Y0193843D01*
X0123610Y0195343D01*
X0123608Y0195403D01*
X0123603Y0195464D01*
X0123594Y0195523D01*
X0123581Y0195582D01*
X0123565Y0195641D01*
X0123545Y0195698D01*
X0123522Y0195753D01*
X0123495Y0195808D01*
X0123466Y0195860D01*
X0123433Y0195911D01*
X0123397Y0195960D01*
X0123359Y0196006D01*
X0123317Y0196050D01*
X0123273Y0196092D01*
X0123227Y0196130D01*
X0123178Y0196166D01*
X0123127Y0196199D01*
X0123075Y0196228D01*
X0123020Y0196255D01*
X0122965Y0196278D01*
X0122908Y0196298D01*
X0122849Y0196314D01*
X0122790Y0196327D01*
X0122731Y0196336D01*
X0122670Y0196341D01*
X0122610Y0196343D01*
X0116610Y0196343D01*
X0116550Y0196341D01*
X0116489Y0196336D01*
X0116430Y0196327D01*
X0116371Y0196314D01*
X0116312Y0196298D01*
X0116255Y0196278D01*
X0116200Y0196255D01*
X0116145Y0196228D01*
X0116093Y0196199D01*
X0116042Y0196166D01*
X0115993Y0196130D01*
X0115947Y0196092D01*
X0115903Y0196050D01*
X0115861Y0196006D01*
X0115823Y0195960D01*
X0115787Y0195911D01*
X0115754Y0195860D01*
X0115725Y0195808D01*
X0115698Y0195753D01*
X0115675Y0195698D01*
X0115655Y0195641D01*
X0115639Y0195582D01*
X0115626Y0195523D01*
X0115617Y0195464D01*
X0115612Y0195403D01*
X0115610Y0195343D01*
X0115610Y0193843D01*
X0116110Y0193343D01*
X0116110Y0179343D01*
X0115610Y0178843D01*
X0115610Y0177343D01*
X0115612Y0177283D01*
X0115617Y0177222D01*
X0115626Y0177163D01*
X0115639Y0177104D01*
X0115655Y0177045D01*
X0115675Y0176988D01*
X0115698Y0176933D01*
X0115725Y0176878D01*
X0115754Y0176826D01*
X0115787Y0176775D01*
X0115823Y0176726D01*
X0115861Y0176680D01*
X0115903Y0176636D01*
X0115947Y0176594D01*
X0115993Y0176556D01*
X0116042Y0176520D01*
X0116093Y0176487D01*
X0116145Y0176458D01*
X0116200Y0176431D01*
X0116255Y0176408D01*
X0116312Y0176388D01*
X0116371Y0176372D01*
X0116430Y0176359D01*
X0116489Y0176350D01*
X0116550Y0176345D01*
X0116610Y0176343D01*
X0122610Y0176343D01*
X0122670Y0176345D01*
X0122731Y0176350D01*
X0122790Y0176359D01*
X0122849Y0176372D01*
X0122908Y0176388D01*
X0122965Y0176408D01*
X0123020Y0176431D01*
X0123075Y0176458D01*
X0123127Y0176487D01*
X0123178Y0176520D01*
X0123227Y0176556D01*
X0123273Y0176594D01*
X0123317Y0176636D01*
X0123359Y0176680D01*
X0123397Y0176726D01*
X0123433Y0176775D01*
X0123466Y0176826D01*
X0123495Y0176878D01*
X0123522Y0176933D01*
X0123545Y0176988D01*
X0123565Y0177045D01*
X0123581Y0177104D01*
X0123594Y0177163D01*
X0123603Y0177222D01*
X0123608Y0177283D01*
X0123610Y0177343D01*
X0031685Y0177587D02*
X0031685Y0179587D01*
X0031185Y0179587D01*
X0031185Y0182587D01*
X0030685Y0182587D01*
X0030685Y0184587D01*
X0031185Y0184587D01*
X0031185Y0187587D01*
X0031685Y0187587D01*
X0031685Y0189587D01*
X0031185Y0189587D01*
X0031185Y0192587D01*
X0030685Y0192587D01*
X0030685Y0194587D01*
X0031185Y0194587D01*
X0031185Y0197587D01*
X0031685Y0197587D01*
X0031685Y0199587D01*
X0031185Y0199587D01*
X0031185Y0202587D01*
X0028185Y0202587D01*
X0028185Y0195087D01*
X0027685Y0194587D01*
X0015185Y0194587D01*
X0015185Y0192587D01*
X0027685Y0192587D01*
X0028185Y0192087D01*
X0028185Y0184587D01*
X0015185Y0184587D01*
X0015185Y0182587D01*
X0028185Y0182587D01*
X0028185Y0175087D01*
X0027685Y0174587D01*
X0015185Y0174587D01*
X0015185Y0172587D01*
X0027685Y0172587D01*
X0028185Y0172087D02*
X0026685Y0173587D01*
X0027685Y0174587D01*
X0028185Y0172087D02*
X0028185Y0164587D01*
X0031185Y0164587D01*
X0031185Y0167587D01*
X0031685Y0167587D01*
X0031685Y0169587D01*
X0031185Y0169587D01*
X0031185Y0172587D01*
X0030685Y0172587D01*
X0030685Y0174587D01*
X0031185Y0174587D01*
X0031185Y0177587D01*
X0031685Y0177587D01*
X0028185Y0182587D02*
X0028185Y0184587D01*
X0027685Y0192587D02*
X0026685Y0193587D01*
X0027685Y0194587D01*
X0028185Y0202587D02*
X0015185Y0202587D01*
X0014185Y0202587D01*
X0014185Y0201087D01*
X0015185Y0201087D01*
X0016185Y0201087D01*
X0016185Y0196087D01*
X0015185Y0196087D01*
X0015185Y0194587D01*
X0015185Y0196087D02*
X0014185Y0196087D01*
X0014185Y0191087D01*
X0015185Y0191087D01*
X0015185Y0192587D01*
X0015185Y0191087D02*
X0016185Y0191087D01*
X0016185Y0186087D01*
X0015185Y0186087D01*
X0015185Y0184587D01*
X0015185Y0186087D02*
X0014185Y0186087D01*
X0014185Y0181087D01*
X0015185Y0181087D01*
X0015185Y0182587D01*
X0015185Y0181087D02*
X0016185Y0181087D01*
X0016185Y0176087D01*
X0015185Y0176087D01*
X0015185Y0174587D01*
X0015185Y0176087D02*
X0014185Y0176087D01*
X0014185Y0171087D01*
X0015185Y0171087D01*
X0016185Y0171087D01*
X0016185Y0166087D01*
X0015185Y0166087D01*
X0015185Y0164587D01*
X0014185Y0164587D01*
X0014185Y0166087D01*
X0015185Y0166087D01*
X0015185Y0164587D02*
X0028185Y0164587D01*
X0014185Y0164587D02*
X0012185Y0164587D01*
X0012185Y0172587D01*
X0012685Y0172587D01*
X0012685Y0174587D01*
X0012185Y0174587D01*
X0012185Y0182587D01*
X0012685Y0182587D01*
X0012685Y0184587D01*
X0012185Y0184587D01*
X0012185Y0192587D01*
X0012685Y0192587D01*
X0012685Y0194587D01*
X0012185Y0194587D01*
X0012185Y0202587D01*
X0014185Y0202587D01*
X0015185Y0202587D02*
X0015185Y0201087D01*
X0015185Y0172587D02*
X0015185Y0171087D01*
X0015185Y0148295D02*
X0014185Y0148295D01*
X0014185Y0146795D01*
X0015185Y0146795D01*
X0016185Y0146795D01*
X0016185Y0141795D01*
X0015185Y0141795D01*
X0015185Y0140295D01*
X0027685Y0140295D01*
X0026685Y0139295D01*
X0027685Y0138295D01*
X0015185Y0138295D01*
X0015185Y0140295D01*
X0015185Y0141795D02*
X0014185Y0141795D01*
X0014185Y0136795D01*
X0015185Y0136795D01*
X0015185Y0138295D01*
X0015185Y0136795D02*
X0016185Y0136795D01*
X0016185Y0131795D01*
X0015185Y0131795D01*
X0015185Y0130295D01*
X0014185Y0130295D01*
X0014185Y0131795D01*
X0015185Y0131795D01*
X0015185Y0130295D02*
X0028185Y0130295D01*
X0031185Y0130295D01*
X0031185Y0133295D01*
X0031685Y0133295D01*
X0031685Y0135295D01*
X0031185Y0135295D01*
X0031185Y0138295D01*
X0030685Y0138295D01*
X0030685Y0140295D01*
X0031185Y0140295D01*
X0031185Y0143295D01*
X0031685Y0143295D01*
X0031685Y0145295D01*
X0031185Y0145295D01*
X0031185Y0148295D01*
X0028185Y0148295D01*
X0015185Y0148295D01*
X0015185Y0146795D01*
X0014185Y0148295D02*
X0012185Y0148295D01*
X0012185Y0140295D01*
X0012685Y0140295D01*
X0012685Y0138295D01*
X0012185Y0138295D01*
X0012185Y0130295D01*
X0014185Y0130295D01*
X0027685Y0138295D02*
X0028185Y0137795D01*
X0028185Y0130295D01*
X0027685Y0140295D02*
X0028185Y0140795D01*
X0028185Y0148295D01*
X0026020Y0087366D02*
X0032020Y0087366D01*
X0032080Y0087364D01*
X0032141Y0087359D01*
X0032200Y0087350D01*
X0032259Y0087337D01*
X0032318Y0087321D01*
X0032375Y0087301D01*
X0032430Y0087278D01*
X0032485Y0087251D01*
X0032537Y0087222D01*
X0032588Y0087189D01*
X0032637Y0087153D01*
X0032683Y0087115D01*
X0032727Y0087073D01*
X0032769Y0087029D01*
X0032807Y0086983D01*
X0032843Y0086934D01*
X0032876Y0086883D01*
X0032905Y0086831D01*
X0032932Y0086776D01*
X0032955Y0086721D01*
X0032975Y0086664D01*
X0032991Y0086605D01*
X0033004Y0086546D01*
X0033013Y0086487D01*
X0033018Y0086426D01*
X0033020Y0086366D01*
X0033020Y0084866D01*
X0032520Y0084366D01*
X0032520Y0070366D01*
X0033020Y0069866D01*
X0033020Y0068366D01*
X0033018Y0068306D01*
X0033013Y0068245D01*
X0033004Y0068186D01*
X0032991Y0068127D01*
X0032975Y0068068D01*
X0032955Y0068011D01*
X0032932Y0067956D01*
X0032905Y0067901D01*
X0032876Y0067849D01*
X0032843Y0067798D01*
X0032807Y0067749D01*
X0032769Y0067703D01*
X0032727Y0067659D01*
X0032683Y0067617D01*
X0032637Y0067579D01*
X0032588Y0067543D01*
X0032537Y0067510D01*
X0032485Y0067481D01*
X0032430Y0067454D01*
X0032375Y0067431D01*
X0032318Y0067411D01*
X0032259Y0067395D01*
X0032200Y0067382D01*
X0032141Y0067373D01*
X0032080Y0067368D01*
X0032020Y0067366D01*
X0026020Y0067366D01*
X0025960Y0067368D01*
X0025899Y0067373D01*
X0025840Y0067382D01*
X0025781Y0067395D01*
X0025722Y0067411D01*
X0025665Y0067431D01*
X0025610Y0067454D01*
X0025555Y0067481D01*
X0025503Y0067510D01*
X0025452Y0067543D01*
X0025403Y0067579D01*
X0025357Y0067617D01*
X0025313Y0067659D01*
X0025271Y0067703D01*
X0025233Y0067749D01*
X0025197Y0067798D01*
X0025164Y0067849D01*
X0025135Y0067901D01*
X0025108Y0067956D01*
X0025085Y0068011D01*
X0025065Y0068068D01*
X0025049Y0068127D01*
X0025036Y0068186D01*
X0025027Y0068245D01*
X0025022Y0068306D01*
X0025020Y0068366D01*
X0025020Y0069866D01*
X0025520Y0070366D01*
X0025520Y0084366D01*
X0025020Y0084866D01*
X0025020Y0086366D01*
X0025022Y0086426D01*
X0025027Y0086487D01*
X0025036Y0086546D01*
X0025049Y0086605D01*
X0025065Y0086664D01*
X0025085Y0086721D01*
X0025108Y0086776D01*
X0025135Y0086831D01*
X0025164Y0086883D01*
X0025197Y0086934D01*
X0025233Y0086983D01*
X0025271Y0087029D01*
X0025313Y0087073D01*
X0025357Y0087115D01*
X0025403Y0087153D01*
X0025452Y0087189D01*
X0025503Y0087222D01*
X0025555Y0087251D01*
X0025610Y0087278D01*
X0025665Y0087301D01*
X0025722Y0087321D01*
X0025781Y0087337D01*
X0025840Y0087350D01*
X0025899Y0087359D01*
X0025960Y0087364D01*
X0026020Y0087366D01*
X0169820Y0073603D02*
X0169820Y0067198D01*
D12*
X0131658Y0016421D02*
X0131660Y0016579D01*
X0131666Y0016737D01*
X0131676Y0016895D01*
X0131690Y0017053D01*
X0131708Y0017210D01*
X0131729Y0017367D01*
X0131755Y0017523D01*
X0131785Y0017679D01*
X0131818Y0017834D01*
X0131856Y0017987D01*
X0131897Y0018140D01*
X0131942Y0018292D01*
X0131991Y0018443D01*
X0132044Y0018592D01*
X0132100Y0018740D01*
X0132160Y0018886D01*
X0132224Y0019031D01*
X0132292Y0019174D01*
X0132363Y0019316D01*
X0132437Y0019456D01*
X0132515Y0019593D01*
X0132597Y0019729D01*
X0132681Y0019863D01*
X0132770Y0019994D01*
X0132861Y0020123D01*
X0132956Y0020250D01*
X0133053Y0020375D01*
X0133154Y0020497D01*
X0133258Y0020616D01*
X0133365Y0020733D01*
X0133475Y0020847D01*
X0133588Y0020958D01*
X0133703Y0021067D01*
X0133821Y0021172D01*
X0133942Y0021274D01*
X0134065Y0021374D01*
X0134191Y0021470D01*
X0134319Y0021563D01*
X0134449Y0021653D01*
X0134582Y0021739D01*
X0134717Y0021823D01*
X0134853Y0021902D01*
X0134992Y0021979D01*
X0135133Y0022051D01*
X0135275Y0022121D01*
X0135419Y0022186D01*
X0135565Y0022248D01*
X0135712Y0022306D01*
X0135861Y0022361D01*
X0136011Y0022412D01*
X0136162Y0022459D01*
X0136314Y0022502D01*
X0136467Y0022541D01*
X0136622Y0022577D01*
X0136777Y0022608D01*
X0136933Y0022636D01*
X0137089Y0022660D01*
X0137246Y0022680D01*
X0137404Y0022696D01*
X0137561Y0022708D01*
X0137720Y0022716D01*
X0137878Y0022720D01*
X0138036Y0022720D01*
X0138194Y0022716D01*
X0138353Y0022708D01*
X0138510Y0022696D01*
X0138668Y0022680D01*
X0138825Y0022660D01*
X0138981Y0022636D01*
X0139137Y0022608D01*
X0139292Y0022577D01*
X0139447Y0022541D01*
X0139600Y0022502D01*
X0139752Y0022459D01*
X0139903Y0022412D01*
X0140053Y0022361D01*
X0140202Y0022306D01*
X0140349Y0022248D01*
X0140495Y0022186D01*
X0140639Y0022121D01*
X0140781Y0022051D01*
X0140922Y0021979D01*
X0141061Y0021902D01*
X0141197Y0021823D01*
X0141332Y0021739D01*
X0141465Y0021653D01*
X0141595Y0021563D01*
X0141723Y0021470D01*
X0141849Y0021374D01*
X0141972Y0021274D01*
X0142093Y0021172D01*
X0142211Y0021067D01*
X0142326Y0020958D01*
X0142439Y0020847D01*
X0142549Y0020733D01*
X0142656Y0020616D01*
X0142760Y0020497D01*
X0142861Y0020375D01*
X0142958Y0020250D01*
X0143053Y0020123D01*
X0143144Y0019994D01*
X0143233Y0019863D01*
X0143317Y0019729D01*
X0143399Y0019593D01*
X0143477Y0019456D01*
X0143551Y0019316D01*
X0143622Y0019174D01*
X0143690Y0019031D01*
X0143754Y0018886D01*
X0143814Y0018740D01*
X0143870Y0018592D01*
X0143923Y0018443D01*
X0143972Y0018292D01*
X0144017Y0018140D01*
X0144058Y0017987D01*
X0144096Y0017834D01*
X0144129Y0017679D01*
X0144159Y0017523D01*
X0144185Y0017367D01*
X0144206Y0017210D01*
X0144224Y0017053D01*
X0144238Y0016895D01*
X0144248Y0016737D01*
X0144254Y0016579D01*
X0144256Y0016421D01*
X0144254Y0016263D01*
X0144248Y0016105D01*
X0144238Y0015947D01*
X0144224Y0015789D01*
X0144206Y0015632D01*
X0144185Y0015475D01*
X0144159Y0015319D01*
X0144129Y0015163D01*
X0144096Y0015008D01*
X0144058Y0014855D01*
X0144017Y0014702D01*
X0143972Y0014550D01*
X0143923Y0014399D01*
X0143870Y0014250D01*
X0143814Y0014102D01*
X0143754Y0013956D01*
X0143690Y0013811D01*
X0143622Y0013668D01*
X0143551Y0013526D01*
X0143477Y0013386D01*
X0143399Y0013249D01*
X0143317Y0013113D01*
X0143233Y0012979D01*
X0143144Y0012848D01*
X0143053Y0012719D01*
X0142958Y0012592D01*
X0142861Y0012467D01*
X0142760Y0012345D01*
X0142656Y0012226D01*
X0142549Y0012109D01*
X0142439Y0011995D01*
X0142326Y0011884D01*
X0142211Y0011775D01*
X0142093Y0011670D01*
X0141972Y0011568D01*
X0141849Y0011468D01*
X0141723Y0011372D01*
X0141595Y0011279D01*
X0141465Y0011189D01*
X0141332Y0011103D01*
X0141197Y0011019D01*
X0141061Y0010940D01*
X0140922Y0010863D01*
X0140781Y0010791D01*
X0140639Y0010721D01*
X0140495Y0010656D01*
X0140349Y0010594D01*
X0140202Y0010536D01*
X0140053Y0010481D01*
X0139903Y0010430D01*
X0139752Y0010383D01*
X0139600Y0010340D01*
X0139447Y0010301D01*
X0139292Y0010265D01*
X0139137Y0010234D01*
X0138981Y0010206D01*
X0138825Y0010182D01*
X0138668Y0010162D01*
X0138510Y0010146D01*
X0138353Y0010134D01*
X0138194Y0010126D01*
X0138036Y0010122D01*
X0137878Y0010122D01*
X0137720Y0010126D01*
X0137561Y0010134D01*
X0137404Y0010146D01*
X0137246Y0010162D01*
X0137089Y0010182D01*
X0136933Y0010206D01*
X0136777Y0010234D01*
X0136622Y0010265D01*
X0136467Y0010301D01*
X0136314Y0010340D01*
X0136162Y0010383D01*
X0136011Y0010430D01*
X0135861Y0010481D01*
X0135712Y0010536D01*
X0135565Y0010594D01*
X0135419Y0010656D01*
X0135275Y0010721D01*
X0135133Y0010791D01*
X0134992Y0010863D01*
X0134853Y0010940D01*
X0134717Y0011019D01*
X0134582Y0011103D01*
X0134449Y0011189D01*
X0134319Y0011279D01*
X0134191Y0011372D01*
X0134065Y0011468D01*
X0133942Y0011568D01*
X0133821Y0011670D01*
X0133703Y0011775D01*
X0133588Y0011884D01*
X0133475Y0011995D01*
X0133365Y0012109D01*
X0133258Y0012226D01*
X0133154Y0012345D01*
X0133053Y0012467D01*
X0132956Y0012592D01*
X0132861Y0012719D01*
X0132770Y0012848D01*
X0132681Y0012979D01*
X0132597Y0013113D01*
X0132515Y0013249D01*
X0132437Y0013386D01*
X0132363Y0013526D01*
X0132292Y0013668D01*
X0132224Y0013811D01*
X0132160Y0013956D01*
X0132100Y0014102D01*
X0132044Y0014250D01*
X0131991Y0014399D01*
X0131942Y0014550D01*
X0131897Y0014702D01*
X0131856Y0014855D01*
X0131818Y0015008D01*
X0131785Y0015163D01*
X0131755Y0015319D01*
X0131729Y0015475D01*
X0131708Y0015632D01*
X0131690Y0015789D01*
X0131676Y0015947D01*
X0131666Y0016105D01*
X0131660Y0016263D01*
X0131658Y0016421D01*
X0206658Y0016421D02*
X0206660Y0016579D01*
X0206666Y0016737D01*
X0206676Y0016895D01*
X0206690Y0017053D01*
X0206708Y0017210D01*
X0206729Y0017367D01*
X0206755Y0017523D01*
X0206785Y0017679D01*
X0206818Y0017834D01*
X0206856Y0017987D01*
X0206897Y0018140D01*
X0206942Y0018292D01*
X0206991Y0018443D01*
X0207044Y0018592D01*
X0207100Y0018740D01*
X0207160Y0018886D01*
X0207224Y0019031D01*
X0207292Y0019174D01*
X0207363Y0019316D01*
X0207437Y0019456D01*
X0207515Y0019593D01*
X0207597Y0019729D01*
X0207681Y0019863D01*
X0207770Y0019994D01*
X0207861Y0020123D01*
X0207956Y0020250D01*
X0208053Y0020375D01*
X0208154Y0020497D01*
X0208258Y0020616D01*
X0208365Y0020733D01*
X0208475Y0020847D01*
X0208588Y0020958D01*
X0208703Y0021067D01*
X0208821Y0021172D01*
X0208942Y0021274D01*
X0209065Y0021374D01*
X0209191Y0021470D01*
X0209319Y0021563D01*
X0209449Y0021653D01*
X0209582Y0021739D01*
X0209717Y0021823D01*
X0209853Y0021902D01*
X0209992Y0021979D01*
X0210133Y0022051D01*
X0210275Y0022121D01*
X0210419Y0022186D01*
X0210565Y0022248D01*
X0210712Y0022306D01*
X0210861Y0022361D01*
X0211011Y0022412D01*
X0211162Y0022459D01*
X0211314Y0022502D01*
X0211467Y0022541D01*
X0211622Y0022577D01*
X0211777Y0022608D01*
X0211933Y0022636D01*
X0212089Y0022660D01*
X0212246Y0022680D01*
X0212404Y0022696D01*
X0212561Y0022708D01*
X0212720Y0022716D01*
X0212878Y0022720D01*
X0213036Y0022720D01*
X0213194Y0022716D01*
X0213353Y0022708D01*
X0213510Y0022696D01*
X0213668Y0022680D01*
X0213825Y0022660D01*
X0213981Y0022636D01*
X0214137Y0022608D01*
X0214292Y0022577D01*
X0214447Y0022541D01*
X0214600Y0022502D01*
X0214752Y0022459D01*
X0214903Y0022412D01*
X0215053Y0022361D01*
X0215202Y0022306D01*
X0215349Y0022248D01*
X0215495Y0022186D01*
X0215639Y0022121D01*
X0215781Y0022051D01*
X0215922Y0021979D01*
X0216061Y0021902D01*
X0216197Y0021823D01*
X0216332Y0021739D01*
X0216465Y0021653D01*
X0216595Y0021563D01*
X0216723Y0021470D01*
X0216849Y0021374D01*
X0216972Y0021274D01*
X0217093Y0021172D01*
X0217211Y0021067D01*
X0217326Y0020958D01*
X0217439Y0020847D01*
X0217549Y0020733D01*
X0217656Y0020616D01*
X0217760Y0020497D01*
X0217861Y0020375D01*
X0217958Y0020250D01*
X0218053Y0020123D01*
X0218144Y0019994D01*
X0218233Y0019863D01*
X0218317Y0019729D01*
X0218399Y0019593D01*
X0218477Y0019456D01*
X0218551Y0019316D01*
X0218622Y0019174D01*
X0218690Y0019031D01*
X0218754Y0018886D01*
X0218814Y0018740D01*
X0218870Y0018592D01*
X0218923Y0018443D01*
X0218972Y0018292D01*
X0219017Y0018140D01*
X0219058Y0017987D01*
X0219096Y0017834D01*
X0219129Y0017679D01*
X0219159Y0017523D01*
X0219185Y0017367D01*
X0219206Y0017210D01*
X0219224Y0017053D01*
X0219238Y0016895D01*
X0219248Y0016737D01*
X0219254Y0016579D01*
X0219256Y0016421D01*
X0219254Y0016263D01*
X0219248Y0016105D01*
X0219238Y0015947D01*
X0219224Y0015789D01*
X0219206Y0015632D01*
X0219185Y0015475D01*
X0219159Y0015319D01*
X0219129Y0015163D01*
X0219096Y0015008D01*
X0219058Y0014855D01*
X0219017Y0014702D01*
X0218972Y0014550D01*
X0218923Y0014399D01*
X0218870Y0014250D01*
X0218814Y0014102D01*
X0218754Y0013956D01*
X0218690Y0013811D01*
X0218622Y0013668D01*
X0218551Y0013526D01*
X0218477Y0013386D01*
X0218399Y0013249D01*
X0218317Y0013113D01*
X0218233Y0012979D01*
X0218144Y0012848D01*
X0218053Y0012719D01*
X0217958Y0012592D01*
X0217861Y0012467D01*
X0217760Y0012345D01*
X0217656Y0012226D01*
X0217549Y0012109D01*
X0217439Y0011995D01*
X0217326Y0011884D01*
X0217211Y0011775D01*
X0217093Y0011670D01*
X0216972Y0011568D01*
X0216849Y0011468D01*
X0216723Y0011372D01*
X0216595Y0011279D01*
X0216465Y0011189D01*
X0216332Y0011103D01*
X0216197Y0011019D01*
X0216061Y0010940D01*
X0215922Y0010863D01*
X0215781Y0010791D01*
X0215639Y0010721D01*
X0215495Y0010656D01*
X0215349Y0010594D01*
X0215202Y0010536D01*
X0215053Y0010481D01*
X0214903Y0010430D01*
X0214752Y0010383D01*
X0214600Y0010340D01*
X0214447Y0010301D01*
X0214292Y0010265D01*
X0214137Y0010234D01*
X0213981Y0010206D01*
X0213825Y0010182D01*
X0213668Y0010162D01*
X0213510Y0010146D01*
X0213353Y0010134D01*
X0213194Y0010126D01*
X0213036Y0010122D01*
X0212878Y0010122D01*
X0212720Y0010126D01*
X0212561Y0010134D01*
X0212404Y0010146D01*
X0212246Y0010162D01*
X0212089Y0010182D01*
X0211933Y0010206D01*
X0211777Y0010234D01*
X0211622Y0010265D01*
X0211467Y0010301D01*
X0211314Y0010340D01*
X0211162Y0010383D01*
X0211011Y0010430D01*
X0210861Y0010481D01*
X0210712Y0010536D01*
X0210565Y0010594D01*
X0210419Y0010656D01*
X0210275Y0010721D01*
X0210133Y0010791D01*
X0209992Y0010863D01*
X0209853Y0010940D01*
X0209717Y0011019D01*
X0209582Y0011103D01*
X0209449Y0011189D01*
X0209319Y0011279D01*
X0209191Y0011372D01*
X0209065Y0011468D01*
X0208942Y0011568D01*
X0208821Y0011670D01*
X0208703Y0011775D01*
X0208588Y0011884D01*
X0208475Y0011995D01*
X0208365Y0012109D01*
X0208258Y0012226D01*
X0208154Y0012345D01*
X0208053Y0012467D01*
X0207956Y0012592D01*
X0207861Y0012719D01*
X0207770Y0012848D01*
X0207681Y0012979D01*
X0207597Y0013113D01*
X0207515Y0013249D01*
X0207437Y0013386D01*
X0207363Y0013526D01*
X0207292Y0013668D01*
X0207224Y0013811D01*
X0207160Y0013956D01*
X0207100Y0014102D01*
X0207044Y0014250D01*
X0206991Y0014399D01*
X0206942Y0014550D01*
X0206897Y0014702D01*
X0206856Y0014855D01*
X0206818Y0015008D01*
X0206785Y0015163D01*
X0206755Y0015319D01*
X0206729Y0015475D01*
X0206708Y0015632D01*
X0206690Y0015789D01*
X0206676Y0015947D01*
X0206666Y0016105D01*
X0206660Y0016263D01*
X0206658Y0016421D01*
X0231421Y0021185D02*
X0231423Y0021343D01*
X0231429Y0021501D01*
X0231439Y0021659D01*
X0231453Y0021817D01*
X0231471Y0021974D01*
X0231492Y0022131D01*
X0231518Y0022287D01*
X0231548Y0022443D01*
X0231581Y0022598D01*
X0231619Y0022751D01*
X0231660Y0022904D01*
X0231705Y0023056D01*
X0231754Y0023207D01*
X0231807Y0023356D01*
X0231863Y0023504D01*
X0231923Y0023650D01*
X0231987Y0023795D01*
X0232055Y0023938D01*
X0232126Y0024080D01*
X0232200Y0024220D01*
X0232278Y0024357D01*
X0232360Y0024493D01*
X0232444Y0024627D01*
X0232533Y0024758D01*
X0232624Y0024887D01*
X0232719Y0025014D01*
X0232816Y0025139D01*
X0232917Y0025261D01*
X0233021Y0025380D01*
X0233128Y0025497D01*
X0233238Y0025611D01*
X0233351Y0025722D01*
X0233466Y0025831D01*
X0233584Y0025936D01*
X0233705Y0026038D01*
X0233828Y0026138D01*
X0233954Y0026234D01*
X0234082Y0026327D01*
X0234212Y0026417D01*
X0234345Y0026503D01*
X0234480Y0026587D01*
X0234616Y0026666D01*
X0234755Y0026743D01*
X0234896Y0026815D01*
X0235038Y0026885D01*
X0235182Y0026950D01*
X0235328Y0027012D01*
X0235475Y0027070D01*
X0235624Y0027125D01*
X0235774Y0027176D01*
X0235925Y0027223D01*
X0236077Y0027266D01*
X0236230Y0027305D01*
X0236385Y0027341D01*
X0236540Y0027372D01*
X0236696Y0027400D01*
X0236852Y0027424D01*
X0237009Y0027444D01*
X0237167Y0027460D01*
X0237324Y0027472D01*
X0237483Y0027480D01*
X0237641Y0027484D01*
X0237799Y0027484D01*
X0237957Y0027480D01*
X0238116Y0027472D01*
X0238273Y0027460D01*
X0238431Y0027444D01*
X0238588Y0027424D01*
X0238744Y0027400D01*
X0238900Y0027372D01*
X0239055Y0027341D01*
X0239210Y0027305D01*
X0239363Y0027266D01*
X0239515Y0027223D01*
X0239666Y0027176D01*
X0239816Y0027125D01*
X0239965Y0027070D01*
X0240112Y0027012D01*
X0240258Y0026950D01*
X0240402Y0026885D01*
X0240544Y0026815D01*
X0240685Y0026743D01*
X0240824Y0026666D01*
X0240960Y0026587D01*
X0241095Y0026503D01*
X0241228Y0026417D01*
X0241358Y0026327D01*
X0241486Y0026234D01*
X0241612Y0026138D01*
X0241735Y0026038D01*
X0241856Y0025936D01*
X0241974Y0025831D01*
X0242089Y0025722D01*
X0242202Y0025611D01*
X0242312Y0025497D01*
X0242419Y0025380D01*
X0242523Y0025261D01*
X0242624Y0025139D01*
X0242721Y0025014D01*
X0242816Y0024887D01*
X0242907Y0024758D01*
X0242996Y0024627D01*
X0243080Y0024493D01*
X0243162Y0024357D01*
X0243240Y0024220D01*
X0243314Y0024080D01*
X0243385Y0023938D01*
X0243453Y0023795D01*
X0243517Y0023650D01*
X0243577Y0023504D01*
X0243633Y0023356D01*
X0243686Y0023207D01*
X0243735Y0023056D01*
X0243780Y0022904D01*
X0243821Y0022751D01*
X0243859Y0022598D01*
X0243892Y0022443D01*
X0243922Y0022287D01*
X0243948Y0022131D01*
X0243969Y0021974D01*
X0243987Y0021817D01*
X0244001Y0021659D01*
X0244011Y0021501D01*
X0244017Y0021343D01*
X0244019Y0021185D01*
X0244017Y0021027D01*
X0244011Y0020869D01*
X0244001Y0020711D01*
X0243987Y0020553D01*
X0243969Y0020396D01*
X0243948Y0020239D01*
X0243922Y0020083D01*
X0243892Y0019927D01*
X0243859Y0019772D01*
X0243821Y0019619D01*
X0243780Y0019466D01*
X0243735Y0019314D01*
X0243686Y0019163D01*
X0243633Y0019014D01*
X0243577Y0018866D01*
X0243517Y0018720D01*
X0243453Y0018575D01*
X0243385Y0018432D01*
X0243314Y0018290D01*
X0243240Y0018150D01*
X0243162Y0018013D01*
X0243080Y0017877D01*
X0242996Y0017743D01*
X0242907Y0017612D01*
X0242816Y0017483D01*
X0242721Y0017356D01*
X0242624Y0017231D01*
X0242523Y0017109D01*
X0242419Y0016990D01*
X0242312Y0016873D01*
X0242202Y0016759D01*
X0242089Y0016648D01*
X0241974Y0016539D01*
X0241856Y0016434D01*
X0241735Y0016332D01*
X0241612Y0016232D01*
X0241486Y0016136D01*
X0241358Y0016043D01*
X0241228Y0015953D01*
X0241095Y0015867D01*
X0240960Y0015783D01*
X0240824Y0015704D01*
X0240685Y0015627D01*
X0240544Y0015555D01*
X0240402Y0015485D01*
X0240258Y0015420D01*
X0240112Y0015358D01*
X0239965Y0015300D01*
X0239816Y0015245D01*
X0239666Y0015194D01*
X0239515Y0015147D01*
X0239363Y0015104D01*
X0239210Y0015065D01*
X0239055Y0015029D01*
X0238900Y0014998D01*
X0238744Y0014970D01*
X0238588Y0014946D01*
X0238431Y0014926D01*
X0238273Y0014910D01*
X0238116Y0014898D01*
X0237957Y0014890D01*
X0237799Y0014886D01*
X0237641Y0014886D01*
X0237483Y0014890D01*
X0237324Y0014898D01*
X0237167Y0014910D01*
X0237009Y0014926D01*
X0236852Y0014946D01*
X0236696Y0014970D01*
X0236540Y0014998D01*
X0236385Y0015029D01*
X0236230Y0015065D01*
X0236077Y0015104D01*
X0235925Y0015147D01*
X0235774Y0015194D01*
X0235624Y0015245D01*
X0235475Y0015300D01*
X0235328Y0015358D01*
X0235182Y0015420D01*
X0235038Y0015485D01*
X0234896Y0015555D01*
X0234755Y0015627D01*
X0234616Y0015704D01*
X0234480Y0015783D01*
X0234345Y0015867D01*
X0234212Y0015953D01*
X0234082Y0016043D01*
X0233954Y0016136D01*
X0233828Y0016232D01*
X0233705Y0016332D01*
X0233584Y0016434D01*
X0233466Y0016539D01*
X0233351Y0016648D01*
X0233238Y0016759D01*
X0233128Y0016873D01*
X0233021Y0016990D01*
X0232917Y0017109D01*
X0232816Y0017231D01*
X0232719Y0017356D01*
X0232624Y0017483D01*
X0232533Y0017612D01*
X0232444Y0017743D01*
X0232360Y0017877D01*
X0232278Y0018013D01*
X0232200Y0018150D01*
X0232126Y0018290D01*
X0232055Y0018432D01*
X0231987Y0018575D01*
X0231923Y0018720D01*
X0231863Y0018866D01*
X0231807Y0019014D01*
X0231754Y0019163D01*
X0231705Y0019314D01*
X0231660Y0019466D01*
X0231619Y0019619D01*
X0231581Y0019772D01*
X0231548Y0019927D01*
X0231518Y0020083D01*
X0231492Y0020239D01*
X0231471Y0020396D01*
X0231453Y0020553D01*
X0231439Y0020711D01*
X0231429Y0020869D01*
X0231423Y0021027D01*
X0231421Y0021185D01*
X0231421Y0198350D02*
X0231423Y0198508D01*
X0231429Y0198666D01*
X0231439Y0198824D01*
X0231453Y0198982D01*
X0231471Y0199139D01*
X0231492Y0199296D01*
X0231518Y0199452D01*
X0231548Y0199608D01*
X0231581Y0199763D01*
X0231619Y0199916D01*
X0231660Y0200069D01*
X0231705Y0200221D01*
X0231754Y0200372D01*
X0231807Y0200521D01*
X0231863Y0200669D01*
X0231923Y0200815D01*
X0231987Y0200960D01*
X0232055Y0201103D01*
X0232126Y0201245D01*
X0232200Y0201385D01*
X0232278Y0201522D01*
X0232360Y0201658D01*
X0232444Y0201792D01*
X0232533Y0201923D01*
X0232624Y0202052D01*
X0232719Y0202179D01*
X0232816Y0202304D01*
X0232917Y0202426D01*
X0233021Y0202545D01*
X0233128Y0202662D01*
X0233238Y0202776D01*
X0233351Y0202887D01*
X0233466Y0202996D01*
X0233584Y0203101D01*
X0233705Y0203203D01*
X0233828Y0203303D01*
X0233954Y0203399D01*
X0234082Y0203492D01*
X0234212Y0203582D01*
X0234345Y0203668D01*
X0234480Y0203752D01*
X0234616Y0203831D01*
X0234755Y0203908D01*
X0234896Y0203980D01*
X0235038Y0204050D01*
X0235182Y0204115D01*
X0235328Y0204177D01*
X0235475Y0204235D01*
X0235624Y0204290D01*
X0235774Y0204341D01*
X0235925Y0204388D01*
X0236077Y0204431D01*
X0236230Y0204470D01*
X0236385Y0204506D01*
X0236540Y0204537D01*
X0236696Y0204565D01*
X0236852Y0204589D01*
X0237009Y0204609D01*
X0237167Y0204625D01*
X0237324Y0204637D01*
X0237483Y0204645D01*
X0237641Y0204649D01*
X0237799Y0204649D01*
X0237957Y0204645D01*
X0238116Y0204637D01*
X0238273Y0204625D01*
X0238431Y0204609D01*
X0238588Y0204589D01*
X0238744Y0204565D01*
X0238900Y0204537D01*
X0239055Y0204506D01*
X0239210Y0204470D01*
X0239363Y0204431D01*
X0239515Y0204388D01*
X0239666Y0204341D01*
X0239816Y0204290D01*
X0239965Y0204235D01*
X0240112Y0204177D01*
X0240258Y0204115D01*
X0240402Y0204050D01*
X0240544Y0203980D01*
X0240685Y0203908D01*
X0240824Y0203831D01*
X0240960Y0203752D01*
X0241095Y0203668D01*
X0241228Y0203582D01*
X0241358Y0203492D01*
X0241486Y0203399D01*
X0241612Y0203303D01*
X0241735Y0203203D01*
X0241856Y0203101D01*
X0241974Y0202996D01*
X0242089Y0202887D01*
X0242202Y0202776D01*
X0242312Y0202662D01*
X0242419Y0202545D01*
X0242523Y0202426D01*
X0242624Y0202304D01*
X0242721Y0202179D01*
X0242816Y0202052D01*
X0242907Y0201923D01*
X0242996Y0201792D01*
X0243080Y0201658D01*
X0243162Y0201522D01*
X0243240Y0201385D01*
X0243314Y0201245D01*
X0243385Y0201103D01*
X0243453Y0200960D01*
X0243517Y0200815D01*
X0243577Y0200669D01*
X0243633Y0200521D01*
X0243686Y0200372D01*
X0243735Y0200221D01*
X0243780Y0200069D01*
X0243821Y0199916D01*
X0243859Y0199763D01*
X0243892Y0199608D01*
X0243922Y0199452D01*
X0243948Y0199296D01*
X0243969Y0199139D01*
X0243987Y0198982D01*
X0244001Y0198824D01*
X0244011Y0198666D01*
X0244017Y0198508D01*
X0244019Y0198350D01*
X0244017Y0198192D01*
X0244011Y0198034D01*
X0244001Y0197876D01*
X0243987Y0197718D01*
X0243969Y0197561D01*
X0243948Y0197404D01*
X0243922Y0197248D01*
X0243892Y0197092D01*
X0243859Y0196937D01*
X0243821Y0196784D01*
X0243780Y0196631D01*
X0243735Y0196479D01*
X0243686Y0196328D01*
X0243633Y0196179D01*
X0243577Y0196031D01*
X0243517Y0195885D01*
X0243453Y0195740D01*
X0243385Y0195597D01*
X0243314Y0195455D01*
X0243240Y0195315D01*
X0243162Y0195178D01*
X0243080Y0195042D01*
X0242996Y0194908D01*
X0242907Y0194777D01*
X0242816Y0194648D01*
X0242721Y0194521D01*
X0242624Y0194396D01*
X0242523Y0194274D01*
X0242419Y0194155D01*
X0242312Y0194038D01*
X0242202Y0193924D01*
X0242089Y0193813D01*
X0241974Y0193704D01*
X0241856Y0193599D01*
X0241735Y0193497D01*
X0241612Y0193397D01*
X0241486Y0193301D01*
X0241358Y0193208D01*
X0241228Y0193118D01*
X0241095Y0193032D01*
X0240960Y0192948D01*
X0240824Y0192869D01*
X0240685Y0192792D01*
X0240544Y0192720D01*
X0240402Y0192650D01*
X0240258Y0192585D01*
X0240112Y0192523D01*
X0239965Y0192465D01*
X0239816Y0192410D01*
X0239666Y0192359D01*
X0239515Y0192312D01*
X0239363Y0192269D01*
X0239210Y0192230D01*
X0239055Y0192194D01*
X0238900Y0192163D01*
X0238744Y0192135D01*
X0238588Y0192111D01*
X0238431Y0192091D01*
X0238273Y0192075D01*
X0238116Y0192063D01*
X0237957Y0192055D01*
X0237799Y0192051D01*
X0237641Y0192051D01*
X0237483Y0192055D01*
X0237324Y0192063D01*
X0237167Y0192075D01*
X0237009Y0192091D01*
X0236852Y0192111D01*
X0236696Y0192135D01*
X0236540Y0192163D01*
X0236385Y0192194D01*
X0236230Y0192230D01*
X0236077Y0192269D01*
X0235925Y0192312D01*
X0235774Y0192359D01*
X0235624Y0192410D01*
X0235475Y0192465D01*
X0235328Y0192523D01*
X0235182Y0192585D01*
X0235038Y0192650D01*
X0234896Y0192720D01*
X0234755Y0192792D01*
X0234616Y0192869D01*
X0234480Y0192948D01*
X0234345Y0193032D01*
X0234212Y0193118D01*
X0234082Y0193208D01*
X0233954Y0193301D01*
X0233828Y0193397D01*
X0233705Y0193497D01*
X0233584Y0193599D01*
X0233466Y0193704D01*
X0233351Y0193813D01*
X0233238Y0193924D01*
X0233128Y0194038D01*
X0233021Y0194155D01*
X0232917Y0194274D01*
X0232816Y0194396D01*
X0232719Y0194521D01*
X0232624Y0194648D01*
X0232533Y0194777D01*
X0232444Y0194908D01*
X0232360Y0195042D01*
X0232278Y0195178D01*
X0232200Y0195315D01*
X0232126Y0195455D01*
X0232055Y0195597D01*
X0231987Y0195740D01*
X0231923Y0195885D01*
X0231863Y0196031D01*
X0231807Y0196179D01*
X0231754Y0196328D01*
X0231705Y0196479D01*
X0231660Y0196631D01*
X0231619Y0196784D01*
X0231581Y0196937D01*
X0231548Y0197092D01*
X0231518Y0197248D01*
X0231492Y0197404D01*
X0231471Y0197561D01*
X0231453Y0197718D01*
X0231439Y0197876D01*
X0231429Y0198034D01*
X0231423Y0198192D01*
X0231421Y0198350D01*
X0206658Y0201421D02*
X0206660Y0201579D01*
X0206666Y0201737D01*
X0206676Y0201895D01*
X0206690Y0202053D01*
X0206708Y0202210D01*
X0206729Y0202367D01*
X0206755Y0202523D01*
X0206785Y0202679D01*
X0206818Y0202834D01*
X0206856Y0202987D01*
X0206897Y0203140D01*
X0206942Y0203292D01*
X0206991Y0203443D01*
X0207044Y0203592D01*
X0207100Y0203740D01*
X0207160Y0203886D01*
X0207224Y0204031D01*
X0207292Y0204174D01*
X0207363Y0204316D01*
X0207437Y0204456D01*
X0207515Y0204593D01*
X0207597Y0204729D01*
X0207681Y0204863D01*
X0207770Y0204994D01*
X0207861Y0205123D01*
X0207956Y0205250D01*
X0208053Y0205375D01*
X0208154Y0205497D01*
X0208258Y0205616D01*
X0208365Y0205733D01*
X0208475Y0205847D01*
X0208588Y0205958D01*
X0208703Y0206067D01*
X0208821Y0206172D01*
X0208942Y0206274D01*
X0209065Y0206374D01*
X0209191Y0206470D01*
X0209319Y0206563D01*
X0209449Y0206653D01*
X0209582Y0206739D01*
X0209717Y0206823D01*
X0209853Y0206902D01*
X0209992Y0206979D01*
X0210133Y0207051D01*
X0210275Y0207121D01*
X0210419Y0207186D01*
X0210565Y0207248D01*
X0210712Y0207306D01*
X0210861Y0207361D01*
X0211011Y0207412D01*
X0211162Y0207459D01*
X0211314Y0207502D01*
X0211467Y0207541D01*
X0211622Y0207577D01*
X0211777Y0207608D01*
X0211933Y0207636D01*
X0212089Y0207660D01*
X0212246Y0207680D01*
X0212404Y0207696D01*
X0212561Y0207708D01*
X0212720Y0207716D01*
X0212878Y0207720D01*
X0213036Y0207720D01*
X0213194Y0207716D01*
X0213353Y0207708D01*
X0213510Y0207696D01*
X0213668Y0207680D01*
X0213825Y0207660D01*
X0213981Y0207636D01*
X0214137Y0207608D01*
X0214292Y0207577D01*
X0214447Y0207541D01*
X0214600Y0207502D01*
X0214752Y0207459D01*
X0214903Y0207412D01*
X0215053Y0207361D01*
X0215202Y0207306D01*
X0215349Y0207248D01*
X0215495Y0207186D01*
X0215639Y0207121D01*
X0215781Y0207051D01*
X0215922Y0206979D01*
X0216061Y0206902D01*
X0216197Y0206823D01*
X0216332Y0206739D01*
X0216465Y0206653D01*
X0216595Y0206563D01*
X0216723Y0206470D01*
X0216849Y0206374D01*
X0216972Y0206274D01*
X0217093Y0206172D01*
X0217211Y0206067D01*
X0217326Y0205958D01*
X0217439Y0205847D01*
X0217549Y0205733D01*
X0217656Y0205616D01*
X0217760Y0205497D01*
X0217861Y0205375D01*
X0217958Y0205250D01*
X0218053Y0205123D01*
X0218144Y0204994D01*
X0218233Y0204863D01*
X0218317Y0204729D01*
X0218399Y0204593D01*
X0218477Y0204456D01*
X0218551Y0204316D01*
X0218622Y0204174D01*
X0218690Y0204031D01*
X0218754Y0203886D01*
X0218814Y0203740D01*
X0218870Y0203592D01*
X0218923Y0203443D01*
X0218972Y0203292D01*
X0219017Y0203140D01*
X0219058Y0202987D01*
X0219096Y0202834D01*
X0219129Y0202679D01*
X0219159Y0202523D01*
X0219185Y0202367D01*
X0219206Y0202210D01*
X0219224Y0202053D01*
X0219238Y0201895D01*
X0219248Y0201737D01*
X0219254Y0201579D01*
X0219256Y0201421D01*
X0219254Y0201263D01*
X0219248Y0201105D01*
X0219238Y0200947D01*
X0219224Y0200789D01*
X0219206Y0200632D01*
X0219185Y0200475D01*
X0219159Y0200319D01*
X0219129Y0200163D01*
X0219096Y0200008D01*
X0219058Y0199855D01*
X0219017Y0199702D01*
X0218972Y0199550D01*
X0218923Y0199399D01*
X0218870Y0199250D01*
X0218814Y0199102D01*
X0218754Y0198956D01*
X0218690Y0198811D01*
X0218622Y0198668D01*
X0218551Y0198526D01*
X0218477Y0198386D01*
X0218399Y0198249D01*
X0218317Y0198113D01*
X0218233Y0197979D01*
X0218144Y0197848D01*
X0218053Y0197719D01*
X0217958Y0197592D01*
X0217861Y0197467D01*
X0217760Y0197345D01*
X0217656Y0197226D01*
X0217549Y0197109D01*
X0217439Y0196995D01*
X0217326Y0196884D01*
X0217211Y0196775D01*
X0217093Y0196670D01*
X0216972Y0196568D01*
X0216849Y0196468D01*
X0216723Y0196372D01*
X0216595Y0196279D01*
X0216465Y0196189D01*
X0216332Y0196103D01*
X0216197Y0196019D01*
X0216061Y0195940D01*
X0215922Y0195863D01*
X0215781Y0195791D01*
X0215639Y0195721D01*
X0215495Y0195656D01*
X0215349Y0195594D01*
X0215202Y0195536D01*
X0215053Y0195481D01*
X0214903Y0195430D01*
X0214752Y0195383D01*
X0214600Y0195340D01*
X0214447Y0195301D01*
X0214292Y0195265D01*
X0214137Y0195234D01*
X0213981Y0195206D01*
X0213825Y0195182D01*
X0213668Y0195162D01*
X0213510Y0195146D01*
X0213353Y0195134D01*
X0213194Y0195126D01*
X0213036Y0195122D01*
X0212878Y0195122D01*
X0212720Y0195126D01*
X0212561Y0195134D01*
X0212404Y0195146D01*
X0212246Y0195162D01*
X0212089Y0195182D01*
X0211933Y0195206D01*
X0211777Y0195234D01*
X0211622Y0195265D01*
X0211467Y0195301D01*
X0211314Y0195340D01*
X0211162Y0195383D01*
X0211011Y0195430D01*
X0210861Y0195481D01*
X0210712Y0195536D01*
X0210565Y0195594D01*
X0210419Y0195656D01*
X0210275Y0195721D01*
X0210133Y0195791D01*
X0209992Y0195863D01*
X0209853Y0195940D01*
X0209717Y0196019D01*
X0209582Y0196103D01*
X0209449Y0196189D01*
X0209319Y0196279D01*
X0209191Y0196372D01*
X0209065Y0196468D01*
X0208942Y0196568D01*
X0208821Y0196670D01*
X0208703Y0196775D01*
X0208588Y0196884D01*
X0208475Y0196995D01*
X0208365Y0197109D01*
X0208258Y0197226D01*
X0208154Y0197345D01*
X0208053Y0197467D01*
X0207956Y0197592D01*
X0207861Y0197719D01*
X0207770Y0197848D01*
X0207681Y0197979D01*
X0207597Y0198113D01*
X0207515Y0198249D01*
X0207437Y0198386D01*
X0207363Y0198526D01*
X0207292Y0198668D01*
X0207224Y0198811D01*
X0207160Y0198956D01*
X0207100Y0199102D01*
X0207044Y0199250D01*
X0206991Y0199399D01*
X0206942Y0199550D01*
X0206897Y0199702D01*
X0206856Y0199855D01*
X0206818Y0200008D01*
X0206785Y0200163D01*
X0206755Y0200319D01*
X0206729Y0200475D01*
X0206708Y0200632D01*
X0206690Y0200789D01*
X0206676Y0200947D01*
X0206666Y0201105D01*
X0206660Y0201263D01*
X0206658Y0201421D01*
X0131658Y0201421D02*
X0131660Y0201579D01*
X0131666Y0201737D01*
X0131676Y0201895D01*
X0131690Y0202053D01*
X0131708Y0202210D01*
X0131729Y0202367D01*
X0131755Y0202523D01*
X0131785Y0202679D01*
X0131818Y0202834D01*
X0131856Y0202987D01*
X0131897Y0203140D01*
X0131942Y0203292D01*
X0131991Y0203443D01*
X0132044Y0203592D01*
X0132100Y0203740D01*
X0132160Y0203886D01*
X0132224Y0204031D01*
X0132292Y0204174D01*
X0132363Y0204316D01*
X0132437Y0204456D01*
X0132515Y0204593D01*
X0132597Y0204729D01*
X0132681Y0204863D01*
X0132770Y0204994D01*
X0132861Y0205123D01*
X0132956Y0205250D01*
X0133053Y0205375D01*
X0133154Y0205497D01*
X0133258Y0205616D01*
X0133365Y0205733D01*
X0133475Y0205847D01*
X0133588Y0205958D01*
X0133703Y0206067D01*
X0133821Y0206172D01*
X0133942Y0206274D01*
X0134065Y0206374D01*
X0134191Y0206470D01*
X0134319Y0206563D01*
X0134449Y0206653D01*
X0134582Y0206739D01*
X0134717Y0206823D01*
X0134853Y0206902D01*
X0134992Y0206979D01*
X0135133Y0207051D01*
X0135275Y0207121D01*
X0135419Y0207186D01*
X0135565Y0207248D01*
X0135712Y0207306D01*
X0135861Y0207361D01*
X0136011Y0207412D01*
X0136162Y0207459D01*
X0136314Y0207502D01*
X0136467Y0207541D01*
X0136622Y0207577D01*
X0136777Y0207608D01*
X0136933Y0207636D01*
X0137089Y0207660D01*
X0137246Y0207680D01*
X0137404Y0207696D01*
X0137561Y0207708D01*
X0137720Y0207716D01*
X0137878Y0207720D01*
X0138036Y0207720D01*
X0138194Y0207716D01*
X0138353Y0207708D01*
X0138510Y0207696D01*
X0138668Y0207680D01*
X0138825Y0207660D01*
X0138981Y0207636D01*
X0139137Y0207608D01*
X0139292Y0207577D01*
X0139447Y0207541D01*
X0139600Y0207502D01*
X0139752Y0207459D01*
X0139903Y0207412D01*
X0140053Y0207361D01*
X0140202Y0207306D01*
X0140349Y0207248D01*
X0140495Y0207186D01*
X0140639Y0207121D01*
X0140781Y0207051D01*
X0140922Y0206979D01*
X0141061Y0206902D01*
X0141197Y0206823D01*
X0141332Y0206739D01*
X0141465Y0206653D01*
X0141595Y0206563D01*
X0141723Y0206470D01*
X0141849Y0206374D01*
X0141972Y0206274D01*
X0142093Y0206172D01*
X0142211Y0206067D01*
X0142326Y0205958D01*
X0142439Y0205847D01*
X0142549Y0205733D01*
X0142656Y0205616D01*
X0142760Y0205497D01*
X0142861Y0205375D01*
X0142958Y0205250D01*
X0143053Y0205123D01*
X0143144Y0204994D01*
X0143233Y0204863D01*
X0143317Y0204729D01*
X0143399Y0204593D01*
X0143477Y0204456D01*
X0143551Y0204316D01*
X0143622Y0204174D01*
X0143690Y0204031D01*
X0143754Y0203886D01*
X0143814Y0203740D01*
X0143870Y0203592D01*
X0143923Y0203443D01*
X0143972Y0203292D01*
X0144017Y0203140D01*
X0144058Y0202987D01*
X0144096Y0202834D01*
X0144129Y0202679D01*
X0144159Y0202523D01*
X0144185Y0202367D01*
X0144206Y0202210D01*
X0144224Y0202053D01*
X0144238Y0201895D01*
X0144248Y0201737D01*
X0144254Y0201579D01*
X0144256Y0201421D01*
X0144254Y0201263D01*
X0144248Y0201105D01*
X0144238Y0200947D01*
X0144224Y0200789D01*
X0144206Y0200632D01*
X0144185Y0200475D01*
X0144159Y0200319D01*
X0144129Y0200163D01*
X0144096Y0200008D01*
X0144058Y0199855D01*
X0144017Y0199702D01*
X0143972Y0199550D01*
X0143923Y0199399D01*
X0143870Y0199250D01*
X0143814Y0199102D01*
X0143754Y0198956D01*
X0143690Y0198811D01*
X0143622Y0198668D01*
X0143551Y0198526D01*
X0143477Y0198386D01*
X0143399Y0198249D01*
X0143317Y0198113D01*
X0143233Y0197979D01*
X0143144Y0197848D01*
X0143053Y0197719D01*
X0142958Y0197592D01*
X0142861Y0197467D01*
X0142760Y0197345D01*
X0142656Y0197226D01*
X0142549Y0197109D01*
X0142439Y0196995D01*
X0142326Y0196884D01*
X0142211Y0196775D01*
X0142093Y0196670D01*
X0141972Y0196568D01*
X0141849Y0196468D01*
X0141723Y0196372D01*
X0141595Y0196279D01*
X0141465Y0196189D01*
X0141332Y0196103D01*
X0141197Y0196019D01*
X0141061Y0195940D01*
X0140922Y0195863D01*
X0140781Y0195791D01*
X0140639Y0195721D01*
X0140495Y0195656D01*
X0140349Y0195594D01*
X0140202Y0195536D01*
X0140053Y0195481D01*
X0139903Y0195430D01*
X0139752Y0195383D01*
X0139600Y0195340D01*
X0139447Y0195301D01*
X0139292Y0195265D01*
X0139137Y0195234D01*
X0138981Y0195206D01*
X0138825Y0195182D01*
X0138668Y0195162D01*
X0138510Y0195146D01*
X0138353Y0195134D01*
X0138194Y0195126D01*
X0138036Y0195122D01*
X0137878Y0195122D01*
X0137720Y0195126D01*
X0137561Y0195134D01*
X0137404Y0195146D01*
X0137246Y0195162D01*
X0137089Y0195182D01*
X0136933Y0195206D01*
X0136777Y0195234D01*
X0136622Y0195265D01*
X0136467Y0195301D01*
X0136314Y0195340D01*
X0136162Y0195383D01*
X0136011Y0195430D01*
X0135861Y0195481D01*
X0135712Y0195536D01*
X0135565Y0195594D01*
X0135419Y0195656D01*
X0135275Y0195721D01*
X0135133Y0195791D01*
X0134992Y0195863D01*
X0134853Y0195940D01*
X0134717Y0196019D01*
X0134582Y0196103D01*
X0134449Y0196189D01*
X0134319Y0196279D01*
X0134191Y0196372D01*
X0134065Y0196468D01*
X0133942Y0196568D01*
X0133821Y0196670D01*
X0133703Y0196775D01*
X0133588Y0196884D01*
X0133475Y0196995D01*
X0133365Y0197109D01*
X0133258Y0197226D01*
X0133154Y0197345D01*
X0133053Y0197467D01*
X0132956Y0197592D01*
X0132861Y0197719D01*
X0132770Y0197848D01*
X0132681Y0197979D01*
X0132597Y0198113D01*
X0132515Y0198249D01*
X0132437Y0198386D01*
X0132363Y0198526D01*
X0132292Y0198668D01*
X0132224Y0198811D01*
X0132160Y0198956D01*
X0132100Y0199102D01*
X0132044Y0199250D01*
X0131991Y0199399D01*
X0131942Y0199550D01*
X0131897Y0199702D01*
X0131856Y0199855D01*
X0131818Y0200008D01*
X0131785Y0200163D01*
X0131755Y0200319D01*
X0131729Y0200475D01*
X0131708Y0200632D01*
X0131690Y0200789D01*
X0131676Y0200947D01*
X0131666Y0201105D01*
X0131660Y0201263D01*
X0131658Y0201421D01*
X0019807Y0109768D02*
X0019809Y0109926D01*
X0019815Y0110084D01*
X0019825Y0110242D01*
X0019839Y0110400D01*
X0019857Y0110557D01*
X0019878Y0110714D01*
X0019904Y0110870D01*
X0019934Y0111026D01*
X0019967Y0111181D01*
X0020005Y0111334D01*
X0020046Y0111487D01*
X0020091Y0111639D01*
X0020140Y0111790D01*
X0020193Y0111939D01*
X0020249Y0112087D01*
X0020309Y0112233D01*
X0020373Y0112378D01*
X0020441Y0112521D01*
X0020512Y0112663D01*
X0020586Y0112803D01*
X0020664Y0112940D01*
X0020746Y0113076D01*
X0020830Y0113210D01*
X0020919Y0113341D01*
X0021010Y0113470D01*
X0021105Y0113597D01*
X0021202Y0113722D01*
X0021303Y0113844D01*
X0021407Y0113963D01*
X0021514Y0114080D01*
X0021624Y0114194D01*
X0021737Y0114305D01*
X0021852Y0114414D01*
X0021970Y0114519D01*
X0022091Y0114621D01*
X0022214Y0114721D01*
X0022340Y0114817D01*
X0022468Y0114910D01*
X0022598Y0115000D01*
X0022731Y0115086D01*
X0022866Y0115170D01*
X0023002Y0115249D01*
X0023141Y0115326D01*
X0023282Y0115398D01*
X0023424Y0115468D01*
X0023568Y0115533D01*
X0023714Y0115595D01*
X0023861Y0115653D01*
X0024010Y0115708D01*
X0024160Y0115759D01*
X0024311Y0115806D01*
X0024463Y0115849D01*
X0024616Y0115888D01*
X0024771Y0115924D01*
X0024926Y0115955D01*
X0025082Y0115983D01*
X0025238Y0116007D01*
X0025395Y0116027D01*
X0025553Y0116043D01*
X0025710Y0116055D01*
X0025869Y0116063D01*
X0026027Y0116067D01*
X0026185Y0116067D01*
X0026343Y0116063D01*
X0026502Y0116055D01*
X0026659Y0116043D01*
X0026817Y0116027D01*
X0026974Y0116007D01*
X0027130Y0115983D01*
X0027286Y0115955D01*
X0027441Y0115924D01*
X0027596Y0115888D01*
X0027749Y0115849D01*
X0027901Y0115806D01*
X0028052Y0115759D01*
X0028202Y0115708D01*
X0028351Y0115653D01*
X0028498Y0115595D01*
X0028644Y0115533D01*
X0028788Y0115468D01*
X0028930Y0115398D01*
X0029071Y0115326D01*
X0029210Y0115249D01*
X0029346Y0115170D01*
X0029481Y0115086D01*
X0029614Y0115000D01*
X0029744Y0114910D01*
X0029872Y0114817D01*
X0029998Y0114721D01*
X0030121Y0114621D01*
X0030242Y0114519D01*
X0030360Y0114414D01*
X0030475Y0114305D01*
X0030588Y0114194D01*
X0030698Y0114080D01*
X0030805Y0113963D01*
X0030909Y0113844D01*
X0031010Y0113722D01*
X0031107Y0113597D01*
X0031202Y0113470D01*
X0031293Y0113341D01*
X0031382Y0113210D01*
X0031466Y0113076D01*
X0031548Y0112940D01*
X0031626Y0112803D01*
X0031700Y0112663D01*
X0031771Y0112521D01*
X0031839Y0112378D01*
X0031903Y0112233D01*
X0031963Y0112087D01*
X0032019Y0111939D01*
X0032072Y0111790D01*
X0032121Y0111639D01*
X0032166Y0111487D01*
X0032207Y0111334D01*
X0032245Y0111181D01*
X0032278Y0111026D01*
X0032308Y0110870D01*
X0032334Y0110714D01*
X0032355Y0110557D01*
X0032373Y0110400D01*
X0032387Y0110242D01*
X0032397Y0110084D01*
X0032403Y0109926D01*
X0032405Y0109768D01*
X0032403Y0109610D01*
X0032397Y0109452D01*
X0032387Y0109294D01*
X0032373Y0109136D01*
X0032355Y0108979D01*
X0032334Y0108822D01*
X0032308Y0108666D01*
X0032278Y0108510D01*
X0032245Y0108355D01*
X0032207Y0108202D01*
X0032166Y0108049D01*
X0032121Y0107897D01*
X0032072Y0107746D01*
X0032019Y0107597D01*
X0031963Y0107449D01*
X0031903Y0107303D01*
X0031839Y0107158D01*
X0031771Y0107015D01*
X0031700Y0106873D01*
X0031626Y0106733D01*
X0031548Y0106596D01*
X0031466Y0106460D01*
X0031382Y0106326D01*
X0031293Y0106195D01*
X0031202Y0106066D01*
X0031107Y0105939D01*
X0031010Y0105814D01*
X0030909Y0105692D01*
X0030805Y0105573D01*
X0030698Y0105456D01*
X0030588Y0105342D01*
X0030475Y0105231D01*
X0030360Y0105122D01*
X0030242Y0105017D01*
X0030121Y0104915D01*
X0029998Y0104815D01*
X0029872Y0104719D01*
X0029744Y0104626D01*
X0029614Y0104536D01*
X0029481Y0104450D01*
X0029346Y0104366D01*
X0029210Y0104287D01*
X0029071Y0104210D01*
X0028930Y0104138D01*
X0028788Y0104068D01*
X0028644Y0104003D01*
X0028498Y0103941D01*
X0028351Y0103883D01*
X0028202Y0103828D01*
X0028052Y0103777D01*
X0027901Y0103730D01*
X0027749Y0103687D01*
X0027596Y0103648D01*
X0027441Y0103612D01*
X0027286Y0103581D01*
X0027130Y0103553D01*
X0026974Y0103529D01*
X0026817Y0103509D01*
X0026659Y0103493D01*
X0026502Y0103481D01*
X0026343Y0103473D01*
X0026185Y0103469D01*
X0026027Y0103469D01*
X0025869Y0103473D01*
X0025710Y0103481D01*
X0025553Y0103493D01*
X0025395Y0103509D01*
X0025238Y0103529D01*
X0025082Y0103553D01*
X0024926Y0103581D01*
X0024771Y0103612D01*
X0024616Y0103648D01*
X0024463Y0103687D01*
X0024311Y0103730D01*
X0024160Y0103777D01*
X0024010Y0103828D01*
X0023861Y0103883D01*
X0023714Y0103941D01*
X0023568Y0104003D01*
X0023424Y0104068D01*
X0023282Y0104138D01*
X0023141Y0104210D01*
X0023002Y0104287D01*
X0022866Y0104366D01*
X0022731Y0104450D01*
X0022598Y0104536D01*
X0022468Y0104626D01*
X0022340Y0104719D01*
X0022214Y0104815D01*
X0022091Y0104915D01*
X0021970Y0105017D01*
X0021852Y0105122D01*
X0021737Y0105231D01*
X0021624Y0105342D01*
X0021514Y0105456D01*
X0021407Y0105573D01*
X0021303Y0105692D01*
X0021202Y0105814D01*
X0021105Y0105939D01*
X0021010Y0106066D01*
X0020919Y0106195D01*
X0020830Y0106326D01*
X0020746Y0106460D01*
X0020664Y0106596D01*
X0020586Y0106733D01*
X0020512Y0106873D01*
X0020441Y0107015D01*
X0020373Y0107158D01*
X0020309Y0107303D01*
X0020249Y0107449D01*
X0020193Y0107597D01*
X0020140Y0107746D01*
X0020091Y0107897D01*
X0020046Y0108049D01*
X0020005Y0108202D01*
X0019967Y0108355D01*
X0019934Y0108510D01*
X0019904Y0108666D01*
X0019878Y0108822D01*
X0019857Y0108979D01*
X0019839Y0109136D01*
X0019825Y0109294D01*
X0019815Y0109452D01*
X0019809Y0109610D01*
X0019807Y0109768D01*
D13*
X0033782Y0134733D02*
X0034532Y0134733D01*
X0035283Y0135484D01*
X0035283Y0136985D01*
X0036034Y0137736D01*
X0036784Y0137736D01*
X0037535Y0136985D01*
X0037535Y0135484D01*
X0036784Y0134733D01*
X0033782Y0134733D02*
X0033031Y0135484D01*
X0033031Y0136985D01*
X0033782Y0137736D01*
X0033031Y0139337D02*
X0037535Y0139337D01*
X0037535Y0142340D01*
X0037535Y0143941D02*
X0034532Y0146944D01*
X0033782Y0146944D01*
X0033031Y0146193D01*
X0033031Y0144692D01*
X0033782Y0143941D01*
X0037535Y0143941D02*
X0037535Y0146944D01*
X0027404Y0142545D02*
X0025135Y0142545D01*
X0026269Y0142545D02*
X0026269Y0145948D01*
X0025135Y0144814D01*
X0033782Y0189025D02*
X0034532Y0189025D01*
X0035283Y0189775D01*
X0035283Y0191277D01*
X0036034Y0192027D01*
X0036784Y0192027D01*
X0037535Y0191277D01*
X0037535Y0189775D01*
X0036784Y0189025D01*
X0033782Y0189025D02*
X0033031Y0189775D01*
X0033031Y0191277D01*
X0033782Y0192027D01*
X0033031Y0193629D02*
X0037535Y0193629D01*
X0037535Y0196631D01*
X0037535Y0198233D02*
X0037535Y0201235D01*
X0037535Y0199734D02*
X0033031Y0199734D01*
X0034532Y0198233D01*
X0027404Y0196837D02*
X0025135Y0196837D01*
X0026269Y0196837D02*
X0026269Y0200240D01*
X0025135Y0199105D01*
X0127957Y0211421D02*
X0127957Y0006421D01*
X0222957Y0006421D01*
X0222957Y0211421D01*
X0127957Y0211421D01*
X0048715Y0059514D02*
X0048715Y0055010D01*
X0047214Y0055010D02*
X0050216Y0055010D01*
X0047214Y0058012D02*
X0048715Y0059514D01*
X0045612Y0059514D02*
X0042610Y0056511D01*
X0043360Y0057262D02*
X0045612Y0055010D01*
X0042610Y0055010D02*
X0042610Y0059514D01*
X0041008Y0058763D02*
X0040258Y0059514D01*
X0038757Y0059514D01*
X0038006Y0058763D01*
X0038006Y0055760D01*
X0038757Y0055010D01*
X0040258Y0055010D01*
X0041008Y0055760D01*
X0041008Y0058763D01*
X0090938Y0055658D02*
X0090938Y0054157D01*
X0091689Y0053406D01*
X0090938Y0051805D02*
X0090938Y0048802D01*
X0090938Y0050303D02*
X0095442Y0050303D01*
X0095442Y0053406D02*
X0092440Y0056408D01*
X0091689Y0056408D01*
X0090938Y0055658D01*
X0095442Y0056408D02*
X0095442Y0053406D01*
D14*
X0063756Y0047760D03*
X0063756Y0037760D03*
X0063756Y0027760D03*
X0034756Y0027760D03*
X0034756Y0037760D03*
X0034756Y0047760D03*
D15*
X0034317Y0080384D02*
X0034317Y0082135D01*
X0034901Y0082719D01*
X0036068Y0082719D01*
X0036652Y0082135D01*
X0036652Y0080384D01*
X0036652Y0081552D02*
X0037820Y0082719D01*
X0037820Y0083975D02*
X0037820Y0086310D01*
X0037820Y0085143D02*
X0034317Y0085143D01*
X0035484Y0083975D01*
X0034317Y0080384D02*
X0037820Y0080384D01*
X0062566Y0093097D02*
X0063333Y0092330D01*
X0064868Y0092330D01*
X0065635Y0093097D01*
X0065635Y0096934D01*
X0067170Y0096167D02*
X0067937Y0096934D01*
X0069472Y0096934D01*
X0070239Y0096167D01*
X0069472Y0094632D02*
X0067937Y0094632D01*
X0067170Y0095399D01*
X0067170Y0096167D01*
X0068705Y0097701D02*
X0068705Y0091563D01*
X0069472Y0092330D02*
X0067937Y0092330D01*
X0067170Y0093097D01*
X0069472Y0092330D02*
X0070239Y0093097D01*
X0070239Y0093865D01*
X0069472Y0094632D01*
X0071774Y0095399D02*
X0073309Y0096934D01*
X0073309Y0092330D01*
X0074843Y0092330D02*
X0071774Y0092330D01*
X0062566Y0093097D02*
X0062566Y0096934D01*
X0090137Y0061547D02*
X0089553Y0060963D01*
X0089553Y0059795D01*
X0090137Y0059211D01*
X0090137Y0057956D02*
X0091304Y0057956D01*
X0091888Y0057372D01*
X0091888Y0055620D01*
X0091888Y0056788D02*
X0093056Y0057956D01*
X0093056Y0059211D02*
X0090721Y0061547D01*
X0090137Y0061547D01*
X0093056Y0061547D02*
X0093056Y0059211D01*
X0090137Y0057956D02*
X0089553Y0057372D01*
X0089553Y0055620D01*
X0093056Y0055620D01*
X0110807Y0176543D02*
X0110807Y0178294D01*
X0111391Y0178878D01*
X0112559Y0178878D01*
X0113143Y0178294D01*
X0113143Y0176543D01*
X0113143Y0177710D02*
X0114310Y0178878D01*
X0113726Y0180134D02*
X0114310Y0180717D01*
X0114310Y0181885D01*
X0113726Y0182469D01*
X0113143Y0182469D01*
X0112559Y0181885D01*
X0112559Y0181301D01*
X0112559Y0181885D02*
X0111975Y0182469D01*
X0111391Y0182469D01*
X0110807Y0181885D01*
X0110807Y0180717D01*
X0111391Y0180134D01*
X0110807Y0176543D02*
X0114310Y0176543D01*
D16*
X0119610Y0175593D03*
X0119610Y0197093D03*
X0029020Y0088116D03*
X0029020Y0066616D03*
X0084256Y0063352D03*
X0084256Y0041852D03*
D17*
X0099892Y0055460D03*
D18*
X0112992Y0037760D03*
D19*
X0110492Y0055010D03*
X0110492Y0020510D03*
D20*
X0110492Y0032760D03*
X0110492Y0042760D03*
M02*
